<mxfile host="app.diagrams.net" modified="2023-07-28T00:51:17.814Z" agent="Mozilla/5.0 (Windows NT 10.0; Win64; x64) AppleWebKit/537.36 (KHTML, like Gecko) Chrome/115.0.0.0 Safari/537.36" version="21.5.0" etag="q7rFX5xTS7wJ9zS9VGfV" type="github">
  <diagram name="ページ1" id="U8sHpZW5kv6Y3-C_uT2e">
    <mxGraphModel>
      <root>
        <mxCell id="0" />
        <mxCell id="1" parent="0" />
      </root>
    </mxGraphModel>
  </diagram>
</mxfile>
